<svg xmlns="http://www.w3.org/2000/svg" width="375" viewBox="0 0 375 375" height="375" version="1.0"><defs><clipPath id="a"><path d="M 284 190 L 367.710938 190 L 367.710938 274 L 284 274 Z M 284 190"/></clipPath><clipPath id="b"><path d="M 258 5.265625 L 302 5.265625 L 302 48 L 258 48 Z M 258 5.265625"/></clipPath><clipPath id="c"><path d="M 258 327 L 302 327 L 302 369.765625 L 258 369.765625 Z M 258 327"/></clipPath></defs><path fill="#043034" d="M 174.003906 130.4375 C 207.273438 130.4375 234.242188 157.429688 234.242188 190.730469 C 234.242188 224.027344 207.273438 251.027344 174.003906 251.027344 C 140.738281 251.027344 113.773438 224.027344 113.773438 190.730469 C 113.773438 157.429688 140.738281 130.4375 174.003906 130.4375"/><path fill="#043034" d="M 48.632812 278.035156 C 71.550781 278.035156 90.117188 296.632812 90.117188 319.570312 C 90.117188 342.5 71.550781 361.097656 48.632812 361.097656 C 25.714844 361.097656 7.140625 342.5 7.140625 319.570312 C 7.140625 296.632812 25.714844 278.035156 48.632812 278.035156"/><g clip-path="url(#a)"><path fill="#043034" d="M 326.046875 190.730469 C 348.960938 190.730469 367.53125 209.324219 367.53125 232.265625 C 367.53125 255.203125 348.960938 273.792969 326.046875 273.792969 C 303.121094 273.792969 284.550781 255.203125 284.550781 232.265625 C 284.550781 209.324219 303.121094 190.730469 326.046875 190.730469"/></g><path fill="#043034" d="M 60.910156 78.652344 C 77.730469 78.652344 91.363281 92.300781 91.363281 109.132812 C 91.363281 125.960938 77.730469 139.613281 60.910156 139.613281 C 44.09375 139.613281 30.464844 125.960938 30.464844 109.132812 C 30.464844 92.300781 44.09375 78.652344 60.910156 78.652344"/><g clip-path="url(#b)"><path fill="#043034" d="M 280.011719 5.269531 C 291.761719 5.269531 301.289062 14.8125 301.289062 26.578125 C 301.289062 38.339844 291.761719 47.878906 280.011719 47.878906 C 268.253906 47.878906 258.726562 38.339844 258.726562 26.578125 C 258.726562 14.8125 268.253906 5.269531 280.011719 5.269531"/></g><g clip-path="url(#c)"><path fill="#043034" d="M 280.011719 327.160156 C 291.761719 327.160156 301.289062 336.695312 301.289062 348.460938 C 301.289062 360.230469 291.761719 369.765625 280.011719 369.765625 C 268.253906 369.765625 258.726562 360.230469 258.726562 348.460938 C 258.726562 336.695312 268.253906 327.160156 280.011719 327.160156"/></g><path fill="#FFF" d="M 191.40625 144.476562 C 201.46875 144.476562 209.628906 152.644531 209.628906 162.71875 C 209.628906 172.796875 201.46875 180.957031 191.40625 180.957031 C 181.335938 180.957031 173.171875 172.796875 173.171875 162.71875 C 173.171875 152.644531 181.335938 144.476562 191.40625 144.476562"/><path fill="#FFF" d="M 58.695312 291.121094 C 65.289062 291.121094 70.625 296.464844 70.625 303.058594 C 70.625 309.65625 65.289062 315.003906 58.695312 315.003906 C 52.105469 315.003906 46.761719 309.65625 46.761719 303.058594 C 46.761719 296.464844 52.105469 291.121094 58.695312 291.121094"/><path fill="#FFF" d="M 337.972656 198.550781 C 344.5625 198.550781 349.902344 203.898438 349.902344 210.496094 C 349.902344 217.09375 344.5625 222.441406 337.972656 222.441406 C 331.386719 222.441406 326.046875 217.09375 326.046875 210.496094 C 326.046875 203.898438 331.386719 198.550781 337.972656 198.550781"/></svg>