<svg xmlns="http://www.w3.org/2000/svg" xmlns:xlink="http://www.w3.org/1999/xlink" width="375" viewBox="0 0 375 375" height="375" version="1.0"><defs><clipPath id="a"><path d="M 11.277344 81.65625 L 118.527344 81.65625 L 118.527344 161.90625 L 11.277344 161.90625 Z M 11.277344 81.65625"/></clipPath><clipPath id="b"><path d="M 72.847656 109.492188 L 58.492188 109.492188 L 86.523438 86.0625 C 86.730469 85.894531 86.984375 85.800781 87.246094 85.800781 L 106.109375 85.800781 C 106.566406 85.800781 106.84375 86.054688 106.964844 86.203125 C 107.089844 86.355469 107.285156 86.671875 107.199219 87.121094 L 106.832031 89.042969 C 106.753906 89.453125 106.457031 89.78125 106.058594 89.902344 L 98.058594 92.308594 C 96.222656 92.859375 94.875 94.304688 94.449219 96.171875 C 94.023438 98.039062 94.609375 99.925781 96.019531 101.21875 C 98.792969 103.75 102.636719 107.773438 105.1875 112.542969 C 108.820312 119.339844 108.777344 125.695312 105.074219 131.480469 C 99.9375 118.355469 87.210938 109.492188 72.847656 109.492188 Z M 20.5 120.050781 L 20.429688 120.050781 C 17.71875 120.050781 15.511719 117.84375 15.511719 115.125 L 15.511719 104.722656 C 15.511719 102.007812 17.71875 99.796875 20.429688 99.796875 L 32.523438 99.796875 C 37.519531 99.796875 41.582031 95.726562 41.582031 90.726562 C 41.582031 85.726562 37.519531 81.65625 32.523438 81.65625 L 18.484375 81.65625 L 18.484375 85.800781 L 32.523438 85.800781 C 35.238281 85.800781 37.445312 88.007812 37.445312 90.726562 C 37.445312 93.445312 35.238281 95.652344 32.523438 95.652344 L 20.429688 95.652344 C 15.4375 95.652344 11.371094 99.722656 11.371094 104.722656 L 11.371094 115.125 C 11.371094 119.734375 14.824219 123.550781 19.277344 124.117188 C 19.523438 122.699219 19.9375 121.335938 20.5 120.050781 Z M 118.078125 100.21875 L 109.707031 92.277344 C 109.066406 93.019531 108.222656 93.578125 107.246094 93.871094 L 99.246094 96.277344 C 98.6875 96.445312 98.523438 96.90625 98.480469 97.097656 C 98.4375 97.285156 98.382812 97.769531 98.8125 98.160156 C 101.613281 100.71875 105.425781 104.695312 108.222656 109.492188 L 113.734375 109.492188 C 114.398438 109.492188 115.042969 109.617188 115.65625 109.859375 L 116.914062 110.355469 C 117.386719 110.542969 117.761719 110.363281 117.941406 110.242188 C 118.089844 110.140625 118.429688 109.851562 118.429688 109.320312 L 118.429688 101.035156 C 118.429688 100.726562 118.304688 100.4375 118.078125 100.21875 Z M 105.789062 156.023438 C 104.4375 155.527344 103.523438 154.242188 103.503906 152.816406 L 103.332031 143.609375 C 103.285156 141.148438 102.949219 138.714844 102.332031 136.386719 C 98.820312 122.988281 86.695312 113.636719 72.847656 113.636719 L 36.628906 113.636719 C 29.195312 113.636719 23.152344 119.691406 23.152344 127.128906 L 23.152344 132.472656 C 23.152344 133.273438 22.871094 134.058594 22.359375 134.683594 L 15.511719 142.855469 L 15.511719 161.832031 L 31.460938 161.832031 L 29.835938 158.578125 L 27.128906 157.164062 C 26.09375 156.617188 25.410156 155.605469 25.289062 154.449219 C 25.167969 153.292969 25.632812 152.160156 26.527344 151.417969 L 35.78125 143.785156 L 39.121094 131.132812 L 43.121094 132.191406 L 41.742188 137.414062 L 62.058594 141.304688 L 85.566406 141.519531 C 86.96875 141.527344 88.21875 142.378906 88.746094 143.683594 L 96.0625 161.832031 L 112.058594 161.832031 L 110.523438 157.734375 Z M 80.835938 156.085938 C 79.484375 155.589844 78.570312 154.304688 78.550781 152.878906 L 78.417969 145.597656 L 64.488281 145.46875 L 71.105469 161.894531 L 87.105469 161.894531 L 85.566406 157.796875 Z M 80.835938 156.085938"/></clipPath><linearGradient x1="0" gradientTransform="matrix(.28664 0 0 .28702 11.373 81.656)" xmlns:xlink="http://www.w3.org/1999/xlink" y1="139.777" x2="373.486" gradientUnits="userSpaceOnUse" y2="139.777" xlink:type="simple" xlink:actuate="onLoad" id="c" xlink:show="other"><stop stop-color="#E7D49E" offset="0"/><stop stop-color="#E7D49E" offset=".008"/><stop stop-color="#E7D39D" offset=".016"/><stop stop-color="#E7D39D" offset=".023"/><stop stop-color="#E7D39C" offset=".031"/><stop stop-color="#E6D39C" offset=".039"/><stop stop-color="#E6D29B" offset=".047"/><stop stop-color="#E6D29B" offset=".055"/><stop stop-color="#E6D29A" offset=".063"/><stop stop-color="#E6D19A" offset=".07"/><stop stop-color="#E6D199" offset=".078"/><stop stop-color="#E6D199" offset=".086"/><stop stop-color="#E6D098" offset=".094"/><stop stop-color="#E6D098" offset=".102"/><stop stop-color="#E5D097" offset=".109"/><stop stop-color="#E5D097" offset=".117"/><stop stop-color="#E5CF96" offset=".125"/><stop stop-color="#E5CF96" offset=".133"/><stop stop-color="#E5CF95" offset=".141"/><stop stop-color="#E5CE95" offset=".148"/><stop stop-color="#E5CE94" offset=".156"/><stop stop-color="#E5CE94" offset=".164"/><stop stop-color="#E5CE93" offset=".172"/><stop stop-color="#E4CD93" offset=".18"/><stop stop-color="#E4CD92" offset=".188"/><stop stop-color="#E4CD92" offset=".195"/><stop stop-color="#E4CC91" offset=".203"/><stop stop-color="#E4CC91" offset=".211"/><stop stop-color="#E4CC90" offset=".219"/><stop stop-color="#E4CB90" offset=".227"/><stop stop-color="#E4CB8F" offset=".234"/><stop stop-color="#E3CB8F" offset=".242"/><stop stop-color="#E3CB8E" offset=".25"/><stop stop-color="#E3CA8E" offset=".258"/><stop stop-color="#E3CA8D" offset=".266"/><stop stop-color="#E3CA8D" offset=".273"/><stop stop-color="#E3C98C" offset=".281"/><stop stop-color="#E3C98C" offset=".289"/><stop stop-color="#E3C98B" offset=".297"/><stop stop-color="#E3C88B" offset=".305"/><stop stop-color="#E2C88A" offset=".313"/><stop stop-color="#E2C88A" offset=".32"/><stop stop-color="#E2C889" offset=".328"/><stop stop-color="#E2C789" offset=".336"/><stop stop-color="#E2C788" offset=".344"/><stop stop-color="#E2C788" offset=".352"/><stop stop-color="#E2C687" offset=".359"/><stop stop-color="#E2C687" offset=".367"/><stop stop-color="#E1C686" offset=".375"/><stop stop-color="#E1C686" offset=".383"/><stop stop-color="#E1C585" offset=".391"/><stop stop-color="#E1C585" offset=".398"/><stop stop-color="#E1C584" offset=".406"/><stop stop-color="#E1C484" offset=".414"/><stop stop-color="#E1C483" offset=".422"/><stop stop-color="#E1C483" offset=".43"/><stop stop-color="#E1C382" offset=".438"/><stop stop-color="#E0C382" offset=".445"/><stop stop-color="#E0C381" offset=".453"/><stop stop-color="#E0C381" offset=".461"/><stop stop-color="#E0C280" offset=".469"/><stop stop-color="#E0C280" offset=".477"/><stop stop-color="#E0C27F" offset=".484"/><stop stop-color="#E0C17F" offset=".492"/><stop stop-color="#E0C17E" offset=".5"/><stop stop-color="#DFC17E" offset=".508"/><stop stop-color="#DFC07D" offset=".516"/><stop stop-color="#DFC07D" offset=".523"/><stop stop-color="#DFC07C" offset=".531"/><stop stop-color="#DFC07C" offset=".539"/><stop stop-color="#DFBF7B" offset=".547"/><stop stop-color="#DFBF7B" offset=".555"/><stop stop-color="#DFBF7A" offset=".563"/><stop stop-color="#DFBE7A" offset=".57"/><stop stop-color="#DEBE79" offset=".578"/><stop stop-color="#DEBE79" offset=".586"/><stop stop-color="#DEBD78" offset=".594"/><stop stop-color="#DEBD78" offset=".602"/><stop stop-color="#DEBD77" offset=".609"/><stop stop-color="#DEBD77" offset=".617"/><stop stop-color="#DEBC76" offset=".625"/><stop stop-color="#DEBC76" offset=".633"/><stop stop-color="#DDBC75" offset=".641"/><stop stop-color="#DDBB75" offset=".648"/><stop stop-color="#DDBB74" offset=".656"/><stop stop-color="#DDBB74" offset=".664"/><stop stop-color="#DDBB73" offset=".672"/><stop stop-color="#DDBA73" offset=".68"/><stop stop-color="#DDBA72" offset=".688"/><stop stop-color="#DDBA72" offset=".695"/><stop stop-color="#DDB971" offset=".703"/><stop stop-color="#DCB971" offset=".711"/><stop stop-color="#DCB970" offset=".719"/><stop stop-color="#DCB870" offset=".727"/><stop stop-color="#DCB86F" offset=".734"/><stop stop-color="#DCB86F" offset=".742"/><stop stop-color="#DCB86E" offset=".75"/><stop stop-color="#DCB76E" offset=".758"/><stop stop-color="#DCB76D" offset=".766"/><stop stop-color="#DBB76D" offset=".773"/><stop stop-color="#DBB66C" offset=".781"/><stop stop-color="#DBB66C" offset=".789"/><stop stop-color="#DBB66B" offset=".797"/><stop stop-color="#DBB56B" offset=".805"/><stop stop-color="#DBB56A" offset=".813"/><stop stop-color="#DBB56A" offset=".82"/><stop stop-color="#DBB569" offset=".828"/><stop stop-color="#DBB469" offset=".836"/><stop stop-color="#DAB468" offset=".844"/><stop stop-color="#DAB468" offset=".852"/><stop stop-color="#DAB367" offset=".859"/><stop stop-color="#DAB367" offset=".867"/><stop stop-color="#DAB366" offset=".875"/><stop stop-color="#DAB366" offset=".883"/><stop stop-color="#DAB265" offset=".891"/><stop stop-color="#DAB265" offset=".898"/><stop stop-color="#D9B264" offset=".906"/><stop stop-color="#D9B164" offset=".914"/><stop stop-color="#D9B163" offset=".922"/><stop stop-color="#D9B163" offset=".93"/><stop stop-color="#D9B062" offset=".938"/><stop stop-color="#D9B062" offset=".945"/><stop stop-color="#D9B061" offset=".953"/><stop stop-color="#D9B061" offset=".961"/><stop stop-color="#D9AF60" offset=".969"/><stop stop-color="#D8AF60" offset=".977"/><stop stop-color="#D8AF5F" offset=".984"/><stop stop-color="#D8AE5F" offset=".992"/><stop stop-color="#D8AE5E" offset="1"/></linearGradient></defs><g fill="#FFF"><g><g><path d="M 3.5 -33.171875 L 31.609375 -33.171875 L 31.609375 -30.90625 L 8.4375 -30.90625 L 8.4375 -18.90625 L 28.90625 -18.90625 L 28.90625 -16.6875 L 8.4375 -16.6875 L 8.4375 -2.28125 L 31.609375 -2.28125 L 31.609375 0 L 3.5 0 Z M 3.5 -33.171875" transform="translate(11.278 217.975)"/></g></g></g><g fill="#FFF"><g><g><path d="M 40.421875 -33.171875 L 40.421875 0 L 35.5 0 L 35.5 -27.859375 L 22.609375 0 L 20.28125 0 L 6.4375 -28.25 L 6.4375 0 L 3.5 0 L 3.5 -33.171875 L 9.140625 -33.171875 L 22.375 -5.875 L 35.015625 -33.171875 Z M 40.421875 -33.171875" transform="translate(45.305 217.975)"/></g></g></g><g fill="#FFF"><g><g><path d="M 3.5 -33.171875 L 16.0625 -33.171875 C 20.613281 -33.171875 24.132812 -32.332031 26.625 -30.65625 C 29.125 -28.988281 30.375 -26.429688 30.375 -22.984375 C 30.375 -19.566406 29.140625 -17.019531 26.671875 -15.34375 C 24.210938 -13.675781 20.675781 -12.84375 16.0625 -12.84375 L 8.4375 -12.84375 L 8.4375 0 L 3.5 0 Z M 16.15625 -15.125 C 22.351562 -15.125 25.453125 -17.742188 25.453125 -22.984375 C 25.453125 -28.265625 22.351562 -30.90625 16.15625 -30.90625 L 8.4375 -30.90625 L 8.4375 -15.125 Z M 16.15625 -15.125" transform="translate(90.374 217.975)"/></g></g></g><g fill="#FFF"><g><g><path d="M 27.15625 -8.625 L 8.0625 -8.625 L 3.75 0 L 0.421875 0 L 17.671875 -33.640625 L 20.234375 -33.640625 L 36.484375 0 L 31.1875 0 Z M 26.0625 -10.90625 L 17.90625 -28.34375 L 9.1875 -10.90625 Z M 26.0625 -10.90625" transform="translate(122.932 217.975)"/></g></g></g><g fill="#FFF"><g><g><path d="M 14.453125 -30.90625 L 0.421875 -30.90625 L 0.421875 -33.171875 L 33.359375 -33.171875 L 33.359375 -30.90625 L 19.375 -30.90625 L 19.375 0 L 14.453125 0 Z M 14.453125 -30.90625" transform="translate(160.94 217.975)"/></g></g></g><g fill="#FFF"><g><g><path d="M 3.5 -33.171875 L 8.4375 -33.171875 L 8.4375 -18.90625 L 29.71875 -18.90625 L 29.71875 -33.171875 L 34.640625 -33.171875 L 34.640625 0 L 29.71875 0 L 29.71875 -16.6875 L 8.4375 -16.6875 L 8.4375 0 L 3.5 0 Z M 3.5 -33.171875" transform="translate(195.82 217.975)"/></g></g></g><g fill="#FFF"><g><g><path d="M 3.5 -33.171875 L 31.609375 -33.171875 L 31.609375 -30.90625 L 8.4375 -30.90625 L 8.4375 -18.90625 L 28.90625 -18.90625 L 28.90625 -16.6875 L 8.4375 -16.6875 L 8.4375 -2.28125 L 31.609375 -2.28125 L 31.609375 0 L 3.5 0 Z M 3.5 -33.171875" transform="translate(235.06 217.975)"/></g></g></g><g fill="#FFF"><g><g><path d="M 14.453125 -30.90625 L 0.421875 -30.90625 L 0.421875 -33.171875 L 33.359375 -33.171875 L 33.359375 -30.90625 L 19.375 -30.90625 L 19.375 0 L 14.453125 0 Z M 14.453125 -30.90625" transform="translate(269.086 217.975)"/></g></g></g><g fill="#FFF"><g><g><path d="M 5.453125 -33.171875 L 10.375 -33.171875 L 10.375 0 L 5.453125 0 Z M 5.453125 -33.171875" transform="translate(303.966 217.975)"/></g></g></g><g fill="#FFF"><g><g><path d="M 20.1875 0.46875 C 14.53125 0.46875 10.1875 -1.015625 7.15625 -3.984375 C 4.125 -6.953125 2.609375 -11.203125 2.609375 -16.734375 C 2.609375 -22.128906 4.113281 -26.296875 7.125 -29.234375 C 10.144531 -32.171875 14.46875 -33.640625 20.09375 -33.640625 C 24.675781 -33.640625 28.40625 -32.675781 31.28125 -30.75 C 34.15625 -28.820312 35.859375 -26.140625 36.390625 -22.703125 L 32.125 -22.703125 C 31.59375 -25.421875 30.28125 -27.546875 28.1875 -29.078125 C 26.101562 -30.609375 23.484375 -31.375 20.328125 -31.375 C 16.222656 -31.375 13.070312 -30.109375 10.875 -27.578125 C 8.675781 -25.054688 7.578125 -21.441406 7.578125 -16.734375 C 7.578125 -11.929688 8.679688 -8.238281 10.890625 -5.65625 C 13.109375 -3.082031 16.285156 -1.796875 20.421875 -1.796875 C 23.585938 -1.796875 26.195312 -2.550781 28.25 -4.0625 C 30.300781 -5.582031 31.59375 -7.71875 32.125 -10.46875 L 36.390625 -10.46875 C 35.859375 -7.03125 34.15625 -4.347656 31.28125 -2.421875 C 28.40625 -0.492188 24.707031 0.46875 20.1875 0.46875 Z M 20.1875 0.46875" transform="translate(320.885 217.975)"/></g></g></g><g fill="#FFF"><g><g><path d="M 3.5 -33.171875 L 8.4375 -33.171875 L 8.4375 -2.28125 L 29.28125 -2.28125 L 29.28125 0 L 3.5 0 Z M 3.5 -33.171875" transform="translate(11.278 265.366)"/></g></g></g><g fill="#FFF"><g><g><path d="M 5.453125 -33.171875 L 10.375 -33.171875 L 10.375 0 L 5.453125 0 Z M 5.453125 -33.171875" transform="translate(42.51 265.366)"/></g></g></g><g fill="#FFF"><g><g><path d="M 20.515625 0.46875 C 16.785156 0.46875 13.578125 -0.207031 10.890625 -1.5625 C 8.210938 -2.925781 6.160156 -4.894531 4.734375 -7.46875 C 3.316406 -10.039062 2.609375 -13.128906 2.609375 -16.734375 C 2.609375 -20.265625 3.316406 -23.300781 4.734375 -25.84375 C 6.160156 -28.394531 8.210938 -30.332031 10.890625 -31.65625 C 13.578125 -32.976562 16.785156 -33.640625 20.515625 -33.640625 C 24.242188 -33.640625 27.441406 -32.976562 30.109375 -31.65625 C 32.785156 -30.332031 34.832031 -28.394531 36.25 -25.84375 C 37.675781 -23.300781 38.390625 -20.265625 38.390625 -16.734375 C 38.390625 -13.128906 37.675781 -10.039062 36.25 -7.46875 C 34.832031 -4.894531 32.785156 -2.925781 30.109375 -1.5625 C 27.441406 -0.207031 24.242188 0.46875 20.515625 0.46875 Z M 20.515625 -1.796875 C 24.628906 -1.796875 27.804688 -3.09375 30.046875 -5.6875 C 32.285156 -8.28125 33.40625 -11.960938 33.40625 -16.734375 C 33.40625 -21.410156 32.289062 -25.019531 30.0625 -27.5625 C 27.84375 -30.101562 24.660156 -31.375 20.515625 -31.375 C 16.378906 -31.375 13.1875 -30.109375 10.9375 -27.578125 C 8.695312 -25.054688 7.578125 -21.441406 7.578125 -16.734375 C 7.578125 -11.960938 8.695312 -8.28125 10.9375 -5.6875 C 13.1875 -3.09375 16.378906 -1.796875 20.515625 -1.796875 Z M 20.515625 -1.796875" transform="translate(59.428 265.366)"/></g></g></g><g fill="#FFF"><g><g><path d="M 3.5 -33.171875 L 8.484375 -33.171875 L 28.671875 -7.4375 L 28.671875 -33.171875 L 32.84375 -33.171875 L 32.84375 0 L 30.375 0 L 7.671875 -28.859375 L 7.671875 0 L 3.5 0 Z M 3.5 -33.171875" transform="translate(101.511 265.366)"/></g></g></g><g fill="#FFF"><g><g><path d="M 18.578125 0.46875 C 13.804688 0.46875 10.046875 -0.460938 7.296875 -2.328125 C 4.546875 -4.191406 3.03125 -6.84375 2.75 -10.28125 L 7.015625 -10.28125 C 7.234375 -7.375 8.28125 -5.234375 10.15625 -3.859375 C 12.039062 -2.484375 14.816406 -1.796875 18.484375 -1.796875 C 21.734375 -1.796875 24.21875 -2.363281 25.9375 -3.5 C 27.664062 -4.644531 28.53125 -6.273438 28.53125 -8.390625 C 28.53125 -9.648438 28.195312 -10.707031 27.53125 -11.5625 C 26.863281 -12.414062 25.734375 -13.171875 24.140625 -13.828125 C 22.546875 -14.492188 20.3125 -15.113281 17.4375 -15.6875 C 12.851562 -16.570312 9.398438 -17.71875 7.078125 -19.125 C 4.765625 -20.53125 3.609375 -22.507812 3.609375 -25.0625 C 3.609375 -27.90625 4.929688 -30.046875 7.578125 -31.484375 C 10.234375 -32.921875 13.726562 -33.640625 18.0625 -33.640625 C 22.445312 -33.640625 25.863281 -32.859375 28.3125 -31.296875 C 30.757812 -29.734375 32.175781 -27.5625 32.5625 -24.78125 L 28.34375 -24.78125 C 27.863281 -27.09375 26.75 -28.769531 25 -29.8125 C 23.25 -30.851562 20.820312 -31.375 17.71875 -31.375 C 14.71875 -31.375 12.4375 -30.882812 10.875 -29.90625 C 9.3125 -28.925781 8.53125 -27.566406 8.53125 -25.828125 C 8.53125 -24.785156 8.828125 -23.898438 9.421875 -23.171875 C 10.023438 -22.441406 11.078125 -21.773438 12.578125 -21.171875 C 14.078125 -20.578125 16.21875 -20 19 -19.4375 C 22.414062 -18.738281 25.15625 -17.976562 27.21875 -17.15625 C 29.289062 -16.332031 30.847656 -15.265625 31.890625 -13.953125 C 32.929688 -12.640625 33.453125 -10.972656 33.453125 -8.953125 C 33.453125 -5.984375 32.117188 -3.671875 29.453125 -2.015625 C 26.785156 -0.359375 23.160156 0.46875 18.578125 0.46875 Z M 18.578125 0.46875" transform="translate(138.95 265.366)"/></g></g></g><g fill="#D8AE5E"><g><g><path d="M 6.457031 -8.136719 L 1.683594 -8.136719 L 1.683594 0 L 6.457031 0 C 11.488281 0 11.960938 -1.722656 11.960938 -3.636719 L 11.960938 -4.230469 C 11.960938 -6.210938 11.488281 -8.136719 6.457031 -8.136719 Z M 10.550781 -3.636719 C 10.550781 -2.292969 10.375 -1.355469 6.457031 -1.355469 L 3.066406 -1.355469 L 3.066406 -6.78125 L 6.457031 -6.78125 C 10.210938 -6.78125 10.550781 -5.683594 10.550781 -4.230469 Z M 10.550781 -3.636719" transform="translate(11.278 291.315)"/></g></g></g><g fill="#D8AE5E"><g><g><path d="M 8.492188 -8.136719 L 5.179688 -4.328125 L 1.859375 -8.136719 L -0.0273438 -8.136719 L 4.246094 -3.253906 L 4.257812 -3.253906 L 4.476562 -2.996094 L 4.476562 0 L 5.859375 0 L 5.859375 -2.984375 L 10.375 -8.136719 Z M 8.492188 -8.136719" transform="translate(28.052 291.315)"/></g></g></g><g fill="#D8AE5E"><g><g><path d="M 9.46875 -8.136719 L 9.46875 -1.53125 L 3.511719 -8.136719 L 1.683594 -8.136719 L 1.683594 0 L 3.066406 0 L 3.066406 -6.589844 L 8.992188 0 L 10.851562 0 L 10.851562 -8.136719 Z M 9.46875 -8.136719" transform="translate(42.141 291.315)"/></g></g></g><g fill="#D8AE5E"><g><g><path d="M 8.980469 0 L 10.566406 0 L 6.117188 -8.097656 L 6.128906 -8.136719 L 4.503906 -8.136719 L 4.53125 -8.097656 L 0.0664062 0 L 1.65625 0 L 2.453125 -1.453125 L 8.179688 -1.453125 Z M 3.199219 -2.808594 L 5.316406 -6.660156 L 7.433594 -2.808594 Z M 3.199219 -2.808594" transform="translate(58.4 291.315)"/></g></g></g><g fill="#D8AE5E"><g><g><path d="M 13.914062 -8.136719 L 11.949219 -8.136719 L 7.773438 -1.355469 L 3.648438 -8.136719 L 1.683594 -8.136719 L 1.683594 0 L 3.066406 0 L 3.066406 -6.414062 L 6.957031 -0.0273438 L 6.929688 0 L 8.597656 0 L 8.585938 -0.0273438 L 12.53125 -6.441406 L 12.53125 0 L 13.914062 0 Z M 13.914062 -8.136719" transform="translate(72.76 291.315)"/></g></g></g><g fill="#D8AE5E"><g><g><path d="M 1.683594 0 L 3.066406 0 L 3.066406 -8.136719 L 1.683594 -8.136719 Z M 1.683594 0" transform="translate(92.083 291.315)"/></g></g></g><g fill="#D8AE5E"><g><g><path d="M 6.589844 0.136719 C 10.265625 0.136719 11.746094 -1.328125 12.015625 -3.050781 L 10.511719 -3.050781 C 10.210938 -1.992188 9.101562 -1.21875 6.589844 -1.21875 C 3.648438 -1.21875 2.496094 -2.332031 2.496094 -3.945312 L 2.496094 -4.230469 C 2.496094 -5.84375 3.648438 -6.957031 6.589844 -6.957031 C 8.84375 -6.957031 10.363281 -6.15625 10.523438 -5.207031 L 12.03125 -5.207031 C 11.910156 -6.835938 10.007812 -8.3125 6.589844 -8.3125 C 2.402344 -8.3125 1.085938 -6.375 1.085938 -4.230469 L 1.085938 -3.945312 C 1.085938 -1.804688 2.402344 0.136719 6.589844 0.136719 Z M 6.589844 0.136719" transform="translate(100.56 291.315)"/></g></g></g><g fill="#D8AE5E"><g><g><path d="M 7.460938 -8.136719 L 1.683594 -8.136719 L 1.683594 0 L 3.066406 0 L 3.066406 -2.644531 L 7.460938 -2.644531 C 9.589844 -2.644531 10.605469 -3.402344 10.605469 -5.332031 L 10.605469 -5.722656 C 10.605469 -7.066406 10.050781 -8.136719 7.460938 -8.136719 Z M 9.195312 -5.332031 C 9.195312 -4.367188 8.800781 -4 7.257812 -4 L 3.066406 -4 L 3.066406 -6.78125 L 7.257812 -6.78125 C 8.734375 -6.78125 9.195312 -6.523438 9.195312 -5.722656 Z M 9.195312 -5.332031" transform="translate(126.595 291.315)"/></g></g></g><g fill="#D8AE5E"><g><g><path d="M 11.3125 -5.765625 L 11.3125 -5.914062 C 11.3125 -7.378906 10.363281 -8.136719 8.773438 -8.136719 L 1.683594 -8.136719 L 1.683594 0 L 3.160156 0 L 3.160156 -3.148438 L 8.207031 -3.148438 C 9.574219 -3.148438 9.574219 -2.304688 9.574219 -1.667969 L 9.574219 -0.757812 C 9.574219 -0.515625 9.589844 -0.242188 9.628906 0 L 11.214844 0 C 11.175781 -0.242188 11.148438 -0.515625 11.148438 -0.8125 L 11.148438 -1.777344 C 11.148438 -2.617188 10.808594 -3.351562 10.023438 -3.785156 C 10.796875 -4.027344 11.3125 -4.585938 11.3125 -5.765625 Z M 3.160156 -4.597656 L 3.160156 -6.78125 L 8.773438 -6.78125 C 9.699219 -6.78125 9.902344 -6.308594 9.902344 -5.914062 L 9.902344 -5.765625 C 9.902344 -5.125 9.546875 -4.597656 8.773438 -4.597656 Z M 3.160156 -4.597656" transform="translate(141.742 291.315)"/></g></g></g><g fill="#D8AE5E"><g><g><path d="M 6.589844 0.136719 C 10.851562 0.136719 12.097656 -1.898438 12.097656 -3.824219 L 12.097656 -4.421875 C 12.097656 -6.457031 10.714844 -8.3125 6.589844 -8.3125 C 2.402344 -8.3125 1.085938 -6.375 1.085938 -4.367188 L 1.085938 -3.769531 C 1.085938 -1.804688 2.402344 0.136719 6.589844 0.136719 Z M 6.589844 -1.21875 C 3.648438 -1.21875 2.496094 -2.332031 2.496094 -3.769531 L 2.496094 -4.367188 C 2.496094 -5.84375 3.648438 -6.957031 6.589844 -6.957031 C 9.441406 -6.957031 10.6875 -5.738281 10.6875 -4.230469 L 10.6875 -3.636719 C 10.6875 -2.265625 9.617188 -1.21875 6.589844 -1.21875 Z M 6.589844 -1.21875" transform="translate(157.797 291.315)"/></g></g></g><g fill="#D8AE5E"><g><g><path d="M 6.957031 -4.394531 L 6.957031 -3.160156 L 10.390625 -3.160156 C 9.957031 -1.777344 8.667969 -1.21875 6.359375 -1.21875 C 3.402344 -1.21875 2.496094 -2.332031 2.496094 -3.945312 L 2.496094 -4.230469 C 2.496094 -5.84375 3.648438 -6.957031 6.589844 -6.957031 C 9.359375 -6.957031 10.105469 -5.871094 10.210938 -5.304688 L 11.71875 -5.304688 C 11.664062 -6.511719 10.566406 -8.3125 6.589844 -8.3125 C 2.402344 -8.3125 1.085938 -6.375 1.085938 -4.230469 L 1.085938 -3.945312 C 1.085938 -1.804688 2.171875 0.136719 6.359375 0.136719 C 8.640625 0.136719 9.941406 -0.351562 10.621094 -1.300781 L 10.621094 -1.234375 L 10.824219 0 L 11.933594 0 L 11.933594 -4.394531 Z M 6.957031 -4.394531" transform="translate(174.707 291.315)"/></g></g></g><g fill="#D8AE5E"><g><g><path d="M 11.3125 -5.765625 L 11.3125 -5.914062 C 11.3125 -7.378906 10.363281 -8.136719 8.773438 -8.136719 L 1.683594 -8.136719 L 1.683594 0 L 3.160156 0 L 3.160156 -3.148438 L 8.207031 -3.148438 C 9.574219 -3.148438 9.574219 -2.304688 9.574219 -1.667969 L 9.574219 -0.757812 C 9.574219 -0.515625 9.589844 -0.242188 9.628906 0 L 11.214844 0 C 11.175781 -0.242188 11.148438 -0.515625 11.148438 -0.8125 L 11.148438 -1.777344 C 11.148438 -2.617188 10.808594 -3.351562 10.023438 -3.785156 C 10.796875 -4.027344 11.3125 -4.585938 11.3125 -5.765625 Z M 3.160156 -4.597656 L 3.160156 -6.78125 L 8.773438 -6.78125 C 9.699219 -6.78125 9.902344 -6.308594 9.902344 -5.914062 L 9.902344 -5.765625 C 9.902344 -5.125 9.546875 -4.597656 8.773438 -4.597656 Z M 3.160156 -4.597656" transform="translate(191.534 291.315)"/></g></g></g><g fill="#D8AE5E"><g><g><path d="M 8.980469 0 L 10.566406 0 L 6.117188 -8.097656 L 6.128906 -8.136719 L 4.503906 -8.136719 L 4.53125 -8.097656 L 0.0664062 0 L 1.65625 0 L 2.453125 -1.453125 L 8.179688 -1.453125 Z M 3.199219 -2.808594 L 5.316406 -6.660156 L 7.433594 -2.808594 Z M 3.199219 -2.808594" transform="translate(207.59 291.315)"/></g></g></g><g fill="#D8AE5E"><g><g><path d="M 13.914062 -8.136719 L 11.949219 -8.136719 L 7.773438 -1.355469 L 3.648438 -8.136719 L 1.683594 -8.136719 L 1.683594 0 L 3.066406 0 L 3.066406 -6.414062 L 6.957031 -0.0273438 L 6.929688 0 L 8.597656 0 L 8.585938 -0.0273438 L 12.53125 -6.441406 L 12.53125 0 L 13.914062 0 Z M 13.914062 -8.136719" transform="translate(221.95 291.315)"/></g></g></g><g fill="#D8AE5E"><g><g><path d="M 13.914062 -8.136719 L 11.949219 -8.136719 L 7.773438 -1.355469 L 3.648438 -8.136719 L 1.683594 -8.136719 L 1.683594 0 L 3.066406 0 L 3.066406 -6.414062 L 6.957031 -0.0273438 L 6.929688 0 L 8.597656 0 L 8.585938 -0.0273438 L 12.53125 -6.441406 L 12.53125 0 L 13.914062 0 Z M 13.914062 -8.136719" transform="translate(241.273 291.315)"/></g></g></g><g fill="#D8AE5E"><g><g><path d="M 1.683594 0 L 3.066406 0 L 3.066406 -8.136719 L 1.683594 -8.136719 Z M 1.683594 0" transform="translate(260.595 291.315)"/></g></g></g><g fill="#D8AE5E"><g><g><path d="M 9.46875 -8.136719 L 9.46875 -1.53125 L 3.511719 -8.136719 L 1.683594 -8.136719 L 1.683594 0 L 3.066406 0 L 3.066406 -6.589844 L 8.992188 0 L 10.851562 0 L 10.851562 -8.136719 Z M 9.46875 -8.136719" transform="translate(269.071 291.315)"/></g></g></g><g fill="#D8AE5E"><g><g><path d="M 6.957031 -4.394531 L 6.957031 -3.160156 L 10.390625 -3.160156 C 9.957031 -1.777344 8.667969 -1.21875 6.359375 -1.21875 C 3.402344 -1.21875 2.496094 -2.332031 2.496094 -3.945312 L 2.496094 -4.230469 C 2.496094 -5.84375 3.648438 -6.957031 6.589844 -6.957031 C 9.359375 -6.957031 10.105469 -5.871094 10.210938 -5.304688 L 11.71875 -5.304688 C 11.664062 -6.511719 10.566406 -8.3125 6.589844 -8.3125 C 2.402344 -8.3125 1.085938 -6.375 1.085938 -4.230469 L 1.085938 -3.945312 C 1.085938 -1.804688 2.171875 0.136719 6.359375 0.136719 C 8.640625 0.136719 9.941406 -0.351562 10.621094 -1.300781 L 10.621094 -1.234375 L 10.824219 0 L 11.933594 0 L 11.933594 -4.394531 Z M 6.957031 -4.394531" transform="translate(285.33 291.315)"/></g></g></g><g clip-path="url(#a)"><g clip-path="url(#b)"><path fill="url(#c)" d="M 11.371094 81.65625 L 11.371094 161.894531 L 118.429688 161.894531 L 118.429688 81.65625 Z M 11.371094 81.65625"/></g></g></svg>