<svg xmlns="http://www.w3.org/2000/svg" width="375" viewBox="0 0 375 375" height="375" version="1.0"><defs><clipPath id="a"><path d="M 124 126 L 195 126 L 195 297 L 124 297 Z M 124 126"/></clipPath><clipPath id="b"><path d="M 108.148438 288.832031 L 136.859375 118.738281 L 197.5 128.976562 L 168.792969 299.070312 Z M 108.148438 288.832031"/></clipPath><clipPath id="c"><path d="M 108.148438 288.832031 L 136.859375 118.738281 L 197.5 128.976562 L 168.792969 299.070312 Z M 108.148438 288.832031"/></clipPath></defs><path fill="#043034" d="M 246.265625 358.214844 L 128.824219 358.214844 C 123.988281 358.214844 120.046875 354.273438 120.046875 349.4375 L 120.046875 231.996094 C 120.046875 227.15625 123.988281 223.214844 128.824219 223.214844 L 246.265625 223.214844 C 251.105469 223.214844 255.046875 227.15625 255.046875 231.996094 L 255.046875 349.4375 C 255.046875 354.273438 251.105469 358.214844 246.265625 358.214844"/><path fill="#043034" d="M 150.183594 178.1875 L 32.742188 178.1875 C 27.90625 178.1875 23.960938 174.246094 23.960938 169.410156 L 23.960938 51.96875 C 23.960938 47.128906 27.90625 43.1875 32.742188 43.1875 L 150.183594 43.1875 C 155.019531 43.1875 158.960938 47.128906 158.960938 51.96875 L 158.960938 169.410156 C 158.960938 174.246094 155.019531 178.1875 150.183594 178.1875"/><path fill="#043034" d="M 342.34375 178.1875 L 224.902344 178.1875 C 220.066406 178.1875 216.125 174.246094 216.125 169.410156 L 216.125 51.96875 C 216.125 47.128906 220.066406 43.1875 224.902344 43.1875 L 342.34375 43.1875 C 347.183594 43.1875 351.125 47.128906 351.125 51.96875 L 351.125 169.410156 C 351.125 174.246094 347.183594 178.1875 342.34375 178.1875"/><g clip-path="url(#a)"><g clip-path="url(#b)"><g clip-path="url(#c)"><path fill="#D8AE5E" d="M 161.808594 295.007812 C 159.617188 297.300781 157.636719 296.402344 155.773438 295.367188 C 150.605469 292.535156 146.140625 288.882812 142.824219 283.90625 C 132.269531 268.042969 126.652344 250.417969 125.074219 231.554688 C 123.449219 212.214844 127.582031 194.097656 138.160156 177.6875 C 143.136719 169.96875 148.539062 162.511719 153.9375 154.671875 C 152.964844 154.824219 151.738281 154.90625 150.546875 155.203125 C 142.433594 157.160156 140.703125 156.578125 135.707031 149.785156 C 134.585938 148.269531 133.746094 146.554688 132.511719 144.496094 C 134.226562 143.792969 135.449219 143.253906 136.695312 142.789062 C 150.117188 137.75 163.636719 132.949219 176.914062 127.527344 C 180.136719 126.222656 182.359375 126.761719 184.636719 128.363281 C 189.210938 131.59375 192.0625 136.394531 194.390625 141.289062 C 195.203125 143 194.371094 145.800781 193.699219 147.910156 C 188.714844 163.34375 185.1875 179.09375 183.769531 195.242188 C 183.332031 200.277344 183.65625 205.371094 183.621094 210.886719 C 181.941406 211.210938 180.355469 209.933594 179.027344 208.742188 C 172.796875 203.148438 167.894531 196.800781 168.148438 187.785156 C 168.273438 183.527344 168.359375 179.277344 168.527344 175.023438 C 168.597656 173.132812 168.863281 171.242188 169.074219 168.917969 C 158.429688 175.863281 143.304688 211.714844 142.546875 231.066406 C 141.617188 254.601562 148.492188 275.859375 161.808594 295.007812 Z M 161.808594 295.007812"/></g></g></g></svg>