<svg xmlns="http://www.w3.org/2000/svg" xmlns:xlink="http://www.w3.org/1999/xlink" width="375" viewBox="0 0 375 375" height="375" version="1.0"><defs><clipPath id="a"><path d="M 5.652344 51.609375 L 369.402344 51.609375 L 369.402344 323.109375 L 5.652344 323.109375 Z M 5.652344 51.609375"/></clipPath><clipPath id="b"><path d="M 214.46875 145.789062 L 165.777344 145.789062 L 260.859375 66.515625 C 261.550781 65.941406 262.417969 65.628906 263.300781 65.628906 L 327.28125 65.628906 C 328.828125 65.628906 329.769531 66.484375 330.191406 66.996094 C 330.613281 67.503906 331.273438 68.585938 330.984375 70.101562 L 329.730469 76.601562 C 329.464844 77.992188 328.46875 79.101562 327.113281 79.507812 L 299.976562 87.648438 C 293.757812 89.507812 289.179688 94.398438 287.730469 100.722656 C 286.285156 107.039062 288.277344 113.417969 293.066406 117.789062 C 302.472656 126.359375 315.5 139.96875 324.152344 156.101562 C 336.472656 179.097656 336.328125 200.597656 323.777344 220.171875 C 306.351562 175.773438 263.1875 145.789062 214.46875 145.789062 Z M 36.925781 181.507812 L 36.691406 181.507812 C 27.488281 181.507812 20 174.03125 20 164.839844 L 20 129.652344 C 20 120.460938 27.488281 112.980469 36.691406 112.980469 L 77.707031 112.980469 C 94.648438 112.980469 108.429688 99.214844 108.429688 82.296875 C 108.429688 65.375 94.644531 51.609375 77.707031 51.609375 L 30.089844 51.609375 L 30.089844 65.625 L 77.703125 65.625 C 86.910156 65.625 94.394531 73.101562 94.394531 82.296875 C 94.394531 91.488281 86.910156 98.964844 77.707031 98.964844 L 36.691406 98.964844 C 19.75 98.964844 5.96875 112.730469 5.96875 129.652344 L 5.96875 164.839844 C 5.96875 180.433594 17.679688 193.339844 32.773438 195.269531 C 33.605469 190.460938 35.011719 185.851562 36.925781 181.507812 Z M 367.875 114.414062 L 339.488281 87.546875 C 337.316406 90.050781 334.453125 91.949219 331.136719 92.933594 L 304.011719 101.074219 C 302.105469 101.644531 301.558594 103.203125 301.410156 103.847656 C 301.265625 104.488281 301.082031 106.117188 302.527344 107.441406 C 312.027344 116.097656 324.964844 129.554688 334.445312 145.789062 L 353.144531 145.789062 C 355.390625 145.789062 357.582031 146.203125 359.65625 147.019531 L 363.925781 148.703125 C 365.53125 149.335938 366.804688 148.730469 367.417969 148.316406 C 367.914062 147.976562 369.070312 147 369.070312 145.199219 L 369.070312 117.167969 C 369.070312 116.128906 368.644531 115.148438 367.875 114.414062 Z M 326.191406 303.210938 C 321.613281 301.53125 318.511719 297.179688 318.441406 292.359375 L 317.867188 261.214844 C 317.710938 252.875 316.570312 244.648438 314.476562 236.769531 C 302.566406 191.445312 261.441406 159.804688 214.46875 159.804688 L 91.625 159.804688 C 66.421875 159.804688 45.917969 180.285156 45.917969 205.453125 L 45.917969 223.535156 C 45.917969 226.242188 44.964844 228.894531 43.234375 231.003906 L 20 258.660156 L 20 322.855469 L 74.101562 322.855469 L 68.585938 311.84375 L 59.402344 307.0625 C 55.894531 305.21875 53.574219 301.792969 53.164062 297.878906 C 52.757812 293.964844 54.328125 290.132812 57.359375 287.625 L 88.757812 261.800781 L 100.082031 218.996094 L 113.648438 222.578125 L 108.972656 240.25 L 177.878906 253.410156 L 257.613281 254.132812 C 262.367188 254.167969 266.601562 257.042969 268.390625 261.453125 L 293.203125 322.855469 L 347.460938 322.855469 L 342.25 308.988281 Z M 241.558594 303.414062 C 236.984375 301.746094 233.882812 297.386719 233.8125 292.566406 L 233.355469 267.933594 L 186.117188 267.503906 L 208.566406 323.0625 L 262.832031 323.0625 L 257.613281 309.203125 Z M 241.558594 303.414062"/></clipPath><linearGradient x1="0" gradientTransform="matrix(.9722 0 0 .97103 5.969 51.609)" xmlns:xlink="http://www.w3.org/1999/xlink" y1="139.777" x2="373.486" gradientUnits="userSpaceOnUse" y2="139.777" xlink:type="simple" xlink:actuate="onLoad" id="c" xlink:show="other"><stop stop-color="#E7D49E" offset="0"/><stop stop-color="#E7D49E" offset=".008"/><stop stop-color="#E7D39D" offset=".016"/><stop stop-color="#E7D39D" offset=".023"/><stop stop-color="#E7D39C" offset=".031"/><stop stop-color="#E6D39C" offset=".039"/><stop stop-color="#E6D29B" offset=".047"/><stop stop-color="#E6D29B" offset=".055"/><stop stop-color="#E6D29A" offset=".063"/><stop stop-color="#E6D19A" offset=".07"/><stop stop-color="#E6D199" offset=".078"/><stop stop-color="#E6D199" offset=".086"/><stop stop-color="#E6D098" offset=".094"/><stop stop-color="#E6D098" offset=".102"/><stop stop-color="#E5D097" offset=".109"/><stop stop-color="#E5D097" offset=".117"/><stop stop-color="#E5CF96" offset=".125"/><stop stop-color="#E5CF96" offset=".133"/><stop stop-color="#E5CF95" offset=".141"/><stop stop-color="#E5CE95" offset=".148"/><stop stop-color="#E5CE94" offset=".156"/><stop stop-color="#E5CE94" offset=".164"/><stop stop-color="#E5CE93" offset=".172"/><stop stop-color="#E4CD93" offset=".18"/><stop stop-color="#E4CD92" offset=".188"/><stop stop-color="#E4CD92" offset=".195"/><stop stop-color="#E4CC91" offset=".203"/><stop stop-color="#E4CC91" offset=".211"/><stop stop-color="#E4CC90" offset=".219"/><stop stop-color="#E4CB90" offset=".227"/><stop stop-color="#E4CB8F" offset=".234"/><stop stop-color="#E3CB8F" offset=".242"/><stop stop-color="#E3CB8E" offset=".25"/><stop stop-color="#E3CA8E" offset=".258"/><stop stop-color="#E3CA8D" offset=".266"/><stop stop-color="#E3CA8D" offset=".273"/><stop stop-color="#E3C98C" offset=".281"/><stop stop-color="#E3C98C" offset=".289"/><stop stop-color="#E3C98B" offset=".297"/><stop stop-color="#E3C88B" offset=".305"/><stop stop-color="#E2C88A" offset=".313"/><stop stop-color="#E2C88A" offset=".32"/><stop stop-color="#E2C889" offset=".328"/><stop stop-color="#E2C789" offset=".336"/><stop stop-color="#E2C788" offset=".344"/><stop stop-color="#E2C788" offset=".352"/><stop stop-color="#E2C687" offset=".359"/><stop stop-color="#E2C687" offset=".367"/><stop stop-color="#E1C686" offset=".375"/><stop stop-color="#E1C686" offset=".383"/><stop stop-color="#E1C585" offset=".391"/><stop stop-color="#E1C585" offset=".398"/><stop stop-color="#E1C584" offset=".406"/><stop stop-color="#E1C484" offset=".414"/><stop stop-color="#E1C483" offset=".422"/><stop stop-color="#E1C483" offset=".43"/><stop stop-color="#E1C382" offset=".438"/><stop stop-color="#E0C382" offset=".445"/><stop stop-color="#E0C381" offset=".453"/><stop stop-color="#E0C381" offset=".461"/><stop stop-color="#E0C280" offset=".469"/><stop stop-color="#E0C280" offset=".477"/><stop stop-color="#E0C27F" offset=".484"/><stop stop-color="#E0C17F" offset=".492"/><stop stop-color="#E0C17E" offset=".5"/><stop stop-color="#DFC17E" offset=".508"/><stop stop-color="#DFC07D" offset=".516"/><stop stop-color="#DFC07D" offset=".523"/><stop stop-color="#DFC07C" offset=".531"/><stop stop-color="#DFC07C" offset=".539"/><stop stop-color="#DFBF7B" offset=".547"/><stop stop-color="#DFBF7B" offset=".555"/><stop stop-color="#DFBF7A" offset=".563"/><stop stop-color="#DFBE7A" offset=".57"/><stop stop-color="#DEBE79" offset=".578"/><stop stop-color="#DEBE79" offset=".586"/><stop stop-color="#DEBD78" offset=".594"/><stop stop-color="#DEBD78" offset=".602"/><stop stop-color="#DEBD77" offset=".609"/><stop stop-color="#DEBD77" offset=".617"/><stop stop-color="#DEBC76" offset=".625"/><stop stop-color="#DEBC76" offset=".633"/><stop stop-color="#DDBC75" offset=".641"/><stop stop-color="#DDBB75" offset=".648"/><stop stop-color="#DDBB74" offset=".656"/><stop stop-color="#DDBB74" offset=".664"/><stop stop-color="#DDBB73" offset=".672"/><stop stop-color="#DDBA73" offset=".68"/><stop stop-color="#DDBA72" offset=".688"/><stop stop-color="#DDBA72" offset=".695"/><stop stop-color="#DDB971" offset=".703"/><stop stop-color="#DCB971" offset=".711"/><stop stop-color="#DCB970" offset=".719"/><stop stop-color="#DCB870" offset=".727"/><stop stop-color="#DCB86F" offset=".734"/><stop stop-color="#DCB86F" offset=".742"/><stop stop-color="#DCB86E" offset=".75"/><stop stop-color="#DCB76E" offset=".758"/><stop stop-color="#DCB76D" offset=".766"/><stop stop-color="#DBB76D" offset=".773"/><stop stop-color="#DBB66C" offset=".781"/><stop stop-color="#DBB66C" offset=".789"/><stop stop-color="#DBB66B" offset=".797"/><stop stop-color="#DBB56B" offset=".805"/><stop stop-color="#DBB56A" offset=".813"/><stop stop-color="#DBB56A" offset=".82"/><stop stop-color="#DBB569" offset=".828"/><stop stop-color="#DBB469" offset=".836"/><stop stop-color="#DAB468" offset=".844"/><stop stop-color="#DAB468" offset=".852"/><stop stop-color="#DAB367" offset=".859"/><stop stop-color="#DAB367" offset=".867"/><stop stop-color="#DAB366" offset=".875"/><stop stop-color="#DAB366" offset=".883"/><stop stop-color="#DAB265" offset=".891"/><stop stop-color="#DAB265" offset=".898"/><stop stop-color="#D9B264" offset=".906"/><stop stop-color="#D9B164" offset=".914"/><stop stop-color="#D9B163" offset=".922"/><stop stop-color="#D9B163" offset=".93"/><stop stop-color="#D9B062" offset=".938"/><stop stop-color="#D9B062" offset=".945"/><stop stop-color="#D9B061" offset=".953"/><stop stop-color="#D9B061" offset=".961"/><stop stop-color="#D9AF60" offset=".969"/><stop stop-color="#D8AF60" offset=".977"/><stop stop-color="#D8AF5F" offset=".984"/><stop stop-color="#D8AE5F" offset=".992"/><stop stop-color="#D8AE5E" offset="1"/></linearGradient></defs><g clip-path="url(#a)"><g clip-path="url(#b)"><path fill="url(#c)" d="M 5.96875 51.609375 L 5.96875 323.0625 L 369.070312 323.0625 L 369.070312 51.609375 Z M 5.96875 51.609375"/></g></g></svg>