<svg xmlns="http://www.w3.org/2000/svg" width="375" viewBox="0 0 375 375" height="375" version="1.0"><defs><clipPath id="a"><path d="M 96 9.722656 L 279 9.722656 L 279 121 L 96 121 Z M 96 9.722656"/></clipPath><clipPath id="b"><path d="M 40 15 L 202 15 L 202 365.222656 L 40 365.222656 Z M 40 15"/></clipPath><clipPath id="c"><path d="M 195 228 L 335 228 L 335 365.222656 L 195 365.222656 Z M 195 228"/></clipPath></defs><g clip-path="url(#a)"><path fill="#043034" d="M 264.136719 120.292969 C 260.554688 120.292969 256.980469 118.925781 254.242188 116.191406 L 187.148438 49.113281 L 120.058594 116.191406 C 114.597656 121.65625 105.722656 121.65625 100.265625 116.191406 C 94.800781 110.726562 94.800781 101.867188 100.265625 96.398438 L 187.148438 9.519531 L 274.035156 96.398438 C 279.5 101.867188 279.5 110.726562 274.035156 116.191406 C 271.296875 118.925781 267.722656 120.292969 264.136719 120.292969 Z M 264.136719 120.292969"/></g><g clip-path="url(#b)"><path fill="#043034" d="M 54.167969 365.230469 C 48.226562 365.230469 42.710938 361.414062 40.828125 355.453125 C 38.5 348.085938 42.578125 340.21875 49.949219 337.882812 C 70.519531 331.371094 173.152344 292.988281 173.152344 176.273438 L 173.152344 29.316406 C 173.152344 21.589844 179.421875 15.320312 187.148438 15.320312 C 194.875 15.320312 201.148438 21.589844 201.148438 29.316406 L 201.148438 176.273438 C 201.148438 312.5 82.230469 357.027344 58.398438 364.570312 C 56.992188 365.019531 55.5625 365.230469 54.167969 365.230469 Z M 54.167969 365.230469"/></g><g clip-path="url(#c)"><path fill="#043034" d="M 324.378906 337.875 C 307.265625 332.492188 233.425781 305.125 209.042969 228.800781 C 205.585938 243.023438 200.832031 256.03125 195.074219 267.84375 C 230.597656 333.988281 298.585938 359.113281 315.988281 364.578125 C 317.378906 365.019531 318.792969 365.230469 320.191406 365.230469 C 326.140625 365.230469 331.664062 361.402344 333.539062 355.425781 C 335.855469 348.050781 331.753906 340.191406 324.378906 337.875 Z M 324.378906 337.875"/></g></svg>