<svg xmlns="http://www.w3.org/2000/svg" width="375" viewBox="0 0 375 375" height="375" version="1.0"><defs><clipPath id="a"><path d="M 7 39 L 371.933594 39 L 371.933594 343 L 7 343 Z M 7 39"/></clipPath></defs><g clip-path="url(#a)"><path fill="#043034" d="M 209.285156 45.765625 C 196.191406 87.867188 253.433594 114.394531 249.035156 128.503906 C 226.199219 137.304688 200.9375 124.421875 176.9375 131.523438 C 157.28125 130.207031 138.03125 135.046875 120.484375 143.671875 C 99.402344 150.488281 85.542969 168.316406 69.414062 182.277344 C 57.511719 187.667969 53.988281 203.65625 46.035156 209.714844 C 33.417969 207.957031 3.007812 208.648438 18.65625 231.449219 C 22.851562 239.640625 38.394531 253.195312 44.734375 247.132812 C 36.566406 256.953125 28.359375 252.007812 23.046875 264.058594 C 15.835938 278.457031 14.308594 295.390625 7.566406 309.613281 C 5.746094 319.769531 8.425781 347.9375 21.160156 341.550781 C 46.152344 326.128906 27.148438 274.070312 87.386719 279.148438 C 103.082031 277.660156 114.148438 263.796875 126.160156 254.824219 C 135.507812 251.953125 146.738281 245.21875 154.707031 240.785156 C 172.609375 231.179688 235.246094 220.546875 240.730469 223.753906 C 259.238281 229.007812 279.367188 227.152344 297.492188 234.660156 C 306.792969 239.671875 335.953125 254.171875 333.753906 234.300781 C 332.558594 225.691406 310.542969 215.324219 329.707031 220.472656 C 343.015625 222.351562 363.625 234.410156 371.839844 218.953125 C 371.179688 202.222656 354.035156 212.34375 346.023438 206.921875 C 337.324219 203.699219 333.679688 201.003906 322.648438 198.589844 C 302.117188 196.1875 319.355469 181.226562 331.535156 181.84375 C 351.746094 180.851562 345.472656 152.597656 336.929688 143.03125 C 328.371094 125.078125 310.042969 115.375 291.59375 110.609375 C 283.523438 93.875 276.953125 75.941406 265.125 61.480469 C 256.878906 53.402344 237.4375 46.085938 230.371094 53.640625 C 226.679688 54.855469 215.203125 27.257812 209.28125 45.761719 Z M 209.285156 45.765625"/></g></svg>