<svg xmlns="http://www.w3.org/2000/svg" width="375" viewBox="0 0 375 375" height="375" version="1.0"><defs><clipPath id="a"><path d="M 86.527344 11.753906 L 262 11.753906 L 262 187 L 86.527344 187 Z M 86.527344 11.753906"/></clipPath></defs><g clip-path="url(#a)"><path fill="#043034" d="M 174.265625 186.792969 C 126.105469 186.792969 86.921875 147.546875 86.921875 99.304688 C 86.921875 51.058594 126.105469 11.8125 174.265625 11.8125 C 222.429688 11.8125 261.609375 51.058594 261.609375 99.304688 C 261.609375 147.546875 222.429688 186.792969 174.265625 186.792969 Z M 174.265625 32.882812 C 137.703125 32.882812 107.957031 62.679688 107.957031 99.304688 C 107.957031 135.925781 137.703125 165.722656 174.265625 165.722656 C 210.828125 165.722656 240.574219 135.925781 240.574219 99.304688 C 240.574219 62.679688 210.828125 32.882812 174.265625 32.882812 Z M 174.265625 32.882812"/></g><path fill="#043034" d="M 174.265625 150.625 C 146.015625 150.625 123.035156 127.601562 123.035156 99.304688 C 123.035156 71.007812 146.015625 47.984375 174.265625 47.984375 C 202.515625 47.984375 225.5 71.007812 225.5 99.304688 C 225.5 127.601562 202.515625 150.625 174.265625 150.625 Z M 174.265625 69.054688 C 157.617188 69.054688 144.066406 82.625 144.066406 99.304688 C 144.066406 115.984375 157.617188 129.550781 174.265625 129.550781 C 190.917969 129.550781 204.464844 115.984375 204.464844 99.304688 C 204.464844 82.625 190.917969 69.054688 174.265625 69.054688 Z M 174.265625 69.054688"/><path fill="#D8AE5E" d="M 287.882812 276.488281 C 287.882812 319.917969 260.984375 331.796875 260.984375 331.796875 L 187.589844 331.796875 C 187.589844 331.796875 161.132812 297.878906 161.132812 255.101562 C 161.132812 222.046875 161.132812 196.988281 161.132812 196.988281 L 287.882812 196.988281 C 287.882812 196.988281 287.882812 233.066406 287.882812 276.488281 Z M 287.882812 276.488281"/><path fill="#D8AE5E" d="M 189.964844 244.316406 L 161.132812 244.316406 C 161.132812 244.316406 161.132812 117.484375 161.132812 95.878906 C 161.132812 74.277344 189.964844 76.867188 189.964844 95.878906 C 189.964844 114.890625 189.964844 244.316406 189.964844 244.316406 Z M 189.964844 244.316406"/><path fill="#D8AE5E" d="M 223.636719 264.175781 L 223.636719 175.519531 C 223.636719 156.019531 189.964844 153.363281 189.964844 175.519531 L 189.964844 264.175781 Z M 223.636719 264.175781"/><path fill="#D8AE5E" d="M 161.132812 213.324219 C 161.132812 229.804688 154.109375 229.414062 148.777344 223.621094 C 142.527344 216.835938 133.980469 205.675781 128.328125 197.441406 C 115.339844 181 88.808594 198.621094 102.679688 220.808594 C 116.554688 243 155.886719 331.800781 187.589844 331.800781 C 210.238281 331.800781 189.964844 277.785156 189.964844 277.785156 C 189.964844 277.785156 189.964844 230.851562 161.132812 213.324219 Z M 161.132812 213.324219"/><path fill="#D8AE5E" d="M 256.511719 264.175781 L 256.511719 182.027344 C 256.511719 162.363281 223.371094 159.683594 223.371094 182.027344 L 223.371094 264.175781 Z M 256.511719 264.175781"/><path fill="#D8AE5E" d="M 287.882812 264.175781 L 287.882812 190.121094 C 287.882812 171.078125 256.464844 168.480469 256.464844 190.121094 L 256.464844 264.175781 Z M 287.882812 264.175781"/><path fill="#D8AE5E" d="M 180.042969 359.542969 C 184.789062 362.285156 256.082031 363.503906 260.984375 359.542969 C 265.882812 355.578125 260.984375 321.425781 260.984375 321.425781 L 180.042969 321.425781 C 180.042969 321.425781 175.300781 356.796875 180.042969 359.542969 Z M 180.042969 359.542969"/></svg>